<svg xmlns="http://www.w3.org/2000/svg" width="485" height="8.062" viewBox="0 0 485 8.062">
  <metadata><?xpacket begin="﻿" id="W5M0MpCehiHzreSzNTczkc9d"?>
<x:xmpmeta xmlns:x="adobe:ns:meta/" x:xmptk="Adobe XMP Core 5.6-c138 79.159824, 2016/09/14-01:09:01        ">
   <rdf:RDF xmlns:rdf="http://www.w3.org/1999/02/22-rdf-syntax-ns#">
      <rdf:Description rdf:about=""/>
   </rdf:RDF>
</x:xmpmeta>
<?xpacket end="w"?></metadata>
<defs>
    <style>
      .cls-1 {
        fill: #2775ef;
        fill-rule: evenodd;
      }
    </style>
  </defs>
  <path id="形状_7_拷贝_10" data-name="形状 7 拷贝 10" class="cls-1" d="M35,220H98l-18.284,8H35v-8Zm485,0v1H35v-1H520Zm-418.748,1-12.688,7.077h-1.64L99.612,221h1.64Zm4.921,0-12.688,7.077h-1.64L104.533,221h1.64Zm4.921,0-12.688,7.077h-1.64L109.453,221h1.641Zm4.921,0-12.688,7.077h-1.64L114.374,221h1.641Zm4.921,0-12.688,7.077h-1.64L119.3,221h1.641Zm4.921,0-12.688,7.077h-1.64L124.216,221h1.641Zm4.92,0-12.687,7.077h-1.641L129.137,221h1.64Zm4.921,0-12.687,7.077H121.37L134.058,221h1.64Zm4.921,0-12.687,7.077h-1.641L138.979,221h1.64Zm4.921,0-12.687,7.077h-1.641L143.9,221h1.64Z" transform="translate(-35 -220)"/>
</svg>

